<?xml version="1.0" encoding="UTF-8"?>
<svg width="206px" height="80px" viewBox="0 0 206 80" version="1.1" xmlns="http://www.w3.org/2000/svg" xmlns:xlink="http://www.w3.org/1999/xlink">
    <title>Avyaja Logo</title>
    <g id="Avyaja" stroke="none" stroke-width="1" fill="none" fill-rule="evenodd">
        <g transform="translate(-220.000000, -30.000000)" fill-rule="nonzero" id="Header">
            <g transform="translate(220.000000, 30.000000)" id="Avyaja-Logo">
                <path d="M51.8823529,70.9470588 L43.4529412,70.9470588 L41.1264706,64.4441176 L27.2264706,64.4441176 L24.9588235,70.9470588 L16.5264706,70.9470588 L29.7852941,36.4705882 C30.3735294,35.2745098 31.0235294,34.4460784 31.7352941,33.9852941 C32.533075,33.5063184 33.4523698,33.2683232 34.3823529,33.3 C35.2693658,33.2570905 36.149299,33.4770738 36.9117647,33.9323529 C37.5529412,34.3558824 38.1254902,35.2019608 38.6294118,36.4705882 L51.8823529,70.9470588 Z M39.2647059,58.2588235 L34.3794118,43.3529412 L29.2617647,58.2588235 L39.2647059,58.2588235 Z" id="Shape" fill="#194786"></path>
                <polygon id="Path" fill="#194786" points="82.8823529 40.7617647 71.7647059 70.9470588 65.8441176 70.9470588 54.6676471 40.7617647 62.6470588 40.7617647 68.8235294 60.4264706 74.9294118 40.7617647"></polygon>
                <path d="M118.235294,40.7617647 L105.617647,74.3294118 C105.146371,75.6661481 104.369939,76.8746032 103.35,77.8588235 C101.79902,79.2862745 99.6284314,80 96.8382353,80 L93.2911765,80 L93.2911765,73.8235294 L95.6176471,73.8235294 C96.7019608,73.8235294 97.5068627,73.6558824 98.0323529,73.3205882 C98.5578431,72.9852941 99.0127451,72.3245098 99.3970588,71.3382353 L99.9852941,69.8676471 L89.9852941,40.7911765 L97.9411765,40.7911765 L103.876471,61.7647059 L110.270588,40.7764706 L118.235294,40.7617647 Z" id="Path" fill="#194786"></path>
                <path d="M150.405882,70.9470588 L145.347059,70.9470588 L143.020588,67.3 L134.938235,71.2647059 C130.442157,71.2647059 127.418627,69.7843137 125.867647,66.8235294 C125.084998,65.3604145 124.544659,63.7801217 124.267647,62.1441176 C123.969404,60.4160183 123.820814,58.6654091 123.823493,56.9117647 C123.823493,55.0980392 123.843137,53.7588235 123.882353,52.8941176 C123.920588,52.0294118 124.017647,51.0264706 124.176471,49.8794118 C124.293489,48.897878 124.518377,47.9322393 124.847059,47 C125.17351,46.1542981 125.592739,45.3474061 126.097059,44.5941176 C126.606129,43.7992653 127.280193,43.1231947 128.073529,42.6117647 C129.818627,41.5215686 132.086275,40.9754902 134.876471,40.9735294 L142.844118,40.9735294 L150.402941,40.55 L150.405882,70.9470588 Z M142.847059,61.3264706 L142.847059,47.1588235 L137.091176,47.1588235 C134.959804,47.1588235 133.476471,47.8990196 132.641176,49.3794118 C131.805882,50.8598039 131.389216,53.0705882 131.39117,56.0117647 C131.39117,58.9529412 131.783333,61.0235294 132.567647,62.2235294 C133.351961,63.4235294 134.854902,64.022549 137.076471,64.020593 L142.847059,61.3264706 Z" id="Shape" fill="#194786"></path>
                <path d="M169.705882,41.8705882 L169.705882,72.0588235 C169.734746,74.1350778 168.928277,76.1358836 167.467647,77.6117647 C165.977451,79.1607843 163.777451,79.9362745 160.867647,79.9382353 L156.576471,79.9382353 L156.576471,74.1176471 L159.485294,74.1176471 C161.267647,74.1176471 162.158824,73.2901961 162.158824,71.6352941 L162.158824,41.8705882 L169.705882,41.8705882 Z M165.985294,29.2235294 C167.806863,29.2235294 168.989216,29.4784314 169.532353,29.9882353 C170.07549,30.4980392 170.347059,31.5764706 170.347059,33.2235294 C170.347059,34.8627451 170.065686,35.9411765 169.502941,36.4588235 C168.940196,36.9764706 167.757843,37.2323529 165.955882,37.2264706 C164.153922,37.2264706 162.971569,36.9617647 162.408824,36.4323529 C161.846078,35.9029412 161.564706,34.8245098 161.564706,33.1970588 C161.564706,31.577451 161.846078,30.5107843 162.408824,29.9970588 C162.971569,29.4833333 164.167647,29.2303922 165.997059,29.2382353 L165.985294,29.2235294 Z" id="Shape" fill="#194786"></path>
                <path d="M205.882353,70.9470588 L200.823529,70.9470588 L198.497059,67.3 L190.414706,71.2647059 C185.918627,71.2647059 182.894118,69.7843137 181.341176,66.8235294 C180.560736,65.3597196 180.02146,63.7796321 179.744118,62.1441176 C179.447831,60.4158492 179.301209,58.66524 179.305774,56.9117647 C179.305774,55.0980392 179.32549,53.7588235 179.364706,52.8941176 C179.402941,52.0294118 179.5,51.0264706 179.658824,49.8794118 C179.776399,48.8982546 180.000263,47.9327819 180.326471,47 C180.654008,46.1542384 181.074217,45.347358 181.579412,44.5941176 C182.088482,43.7992653 182.762546,43.1231947 183.555882,42.6117647 C185.29902,41.5215686 187.566667,40.9754902 190.358824,40.9735294 L198.323529,40.9735294 L205.882353,40.55 L205.882353,70.9470588 Z M198.323529,61.3264706 L198.323529,47.1588235 L192.564706,47.1588235 C190.433333,47.1588235 188.95098,47.8990196 188.117647,49.3794118 C187.284314,50.8598039 186.867647,53.0705882 186.867647,56.0117647 C186.867647,58.9529412 187.259804,61.0235294 188.044118,62.2235294 C188.828431,63.4235294 190.330392,64.022549 192.55,64.020593 L198.323529,61.3264706 Z" id="Shape" fill="#194786"></path>
                <path d="M36.7647059,16.5735294 L36.9794118,2.31764706 L30.5088235,0.0117647059 L30.5941176,16.5529412 C32.640724,16.2285426 34.72619,16.2354941 36.7705882,16.5735294 L36.7647059,16.5735294 Z" id="Path" fill="#FFCD05"></path>
                <path d="M23.5735294,19.1352941 L13.6794118,8.93529412 L7.46764706,11.8764706 L18.8764706,23.1676471 C20.2152097,21.5797694 21.8012564,20.2181727 23.5735294,19.1352941 Z" id="Path" fill="#FFCD05"></path>
                <path d="M2.30588235,28.5294118 L0,35 L14.3617647,34.9264706 C14.4281609,32.8042454 14.8476276,30.7079058 15.6029412,28.7235294 L2.30588235,28.5294118 Z" id="Path" fill="#FFCD05"></path>
                <path d="M48.4294118,23.2676471 L58.3,13.6911765 L55.3588235,7.48235294 L43.7617647,19.2 C45.5252473,20.2974297 47.1011699,21.6707762 48.4294118,23.2676471 L48.4294118,23.2676471 Z" id="Path" fill="#FFCD05"></path>
                <path d="M67.2235294,28.7794118 L51.6705882,28.8617647 C52.4099476,30.8519178 52.8134822,32.9510927 52.8647059,35.0735294 L64.9235294,35.2558824 L67.2235294,28.7794118 Z" id="Path" fill="#FFCD05"></path>
            </g>
        </g>
    </g>
</svg>