<?xml version="1.0" encoding="UTF-8"?>
<svg width="30px" height="30px" viewBox="0 0 30 30" version="1.1" xmlns="http://www.w3.org/2000/svg" xmlns:xlink="http://www.w3.org/1999/xlink">
    <title>Icons/Facebook</title>
    <g id="Avyaja" stroke="none" stroke-width="1" fill="none" fill-rule="evenodd">
        <g transform="translate(-1090.000000, -3090.000000)" fill="#004488" id="Footer">
            <g transform="translate(0.000000, 3000.000000)">
                <path d="M1120,105 C1120,96.7148438 1113.28516,90 1105,90 C1096.71484,90 1090,96.7148438 1090,105 C1090,113.285156 1096.71484,120 1105,120 C1105.08789,120 1105.17578,120 1105.26367,119.994141 L1105.26367,108.322266 L1102.04102,108.322266 L1102.04102,104.566406 L1105.26367,104.566406 L1105.26367,101.800781 C1105.26367,98.5957031 1107.2207,96.8496094 1110.08008,96.8496094 C1111.45117,96.8496094 1112.62891,96.9492188 1112.96875,96.9960938 L1112.96875,100.347656 L1111,100.347656 C1109.44727,100.347656 1109.14258,101.085938 1109.14258,102.169922 L1109.14258,104.560547 L1112.86328,104.560547 L1112.37695,108.316406 L1109.14258,108.316406 L1109.14258,119.419922 C1115.41211,117.621094 1120,111.849609 1120,105 Z" id="Icons/Facebook"></path>
            </g>
        </g>
    </g>
</svg>