<?xml version="1.0" encoding="UTF-8"?>
<svg width="30px" height="30px" viewBox="0 0 30 30" version="1.1" xmlns="http://www.w3.org/2000/svg" xmlns:xlink="http://www.w3.org/1999/xlink">
    <title>Icons/Linkedin</title>
    <g id="Avyaja" stroke="none" stroke-width="1" fill="none" fill-rule="evenodd">
        <g transform="translate(-1190.000000, -3090.000000)" fill="#004488" id="Footer">
            <g transform="translate(0.000000, 3000.000000)">
                <path d="M1205,90 C1196.717,90 1190,96.7169953 1190,105 C1190,113.283005 1196.717,120 1205,120 C1213.283,120 1220,113.283005 1220,105 C1220,96.7169953 1213.283,90 1205,90 Z M1200.64117,112.675781 L1196.98799,112.675781 L1196.98799,101.685104 L1200.64117,101.685104 L1200.64117,112.675781 Z M1198.8147,100.184326 L1198.79089,100.184326 C1197.565,100.184326 1196.77216,99.3404388 1196.77216,98.2857513 C1196.77216,97.2072601 1197.58926,96.3867188 1198.83896,96.3867188 C1200.08865,96.3867188 1200.8577,97.2072601 1200.8815,98.2857513 C1200.8815,99.3404388 1200.08865,100.184326 1198.8147,100.184326 Z M1213.81378,112.675781 L1210.16106,112.675781 L1210.16106,106.796036 C1210.16106,105.318375 1209.63211,104.310608 1208.31032,104.310608 C1207.30118,104.310608 1206.70013,104.990387 1206.436,105.646591 C1206.33942,105.881424 1206.31584,106.20964 1206.31584,106.538086 L1206.31584,112.675781 L1202.66289,112.675781 C1202.66289,112.675781 1202.71072,102.716217 1202.66289,101.685104 L1206.31584,101.685104 L1206.31584,103.241272 C1206.8013,102.492371 1207.66991,101.427155 1209.60808,101.427155 C1212.01157,101.427155 1213.81378,102.997971 1213.81378,106.373749 L1213.81378,112.675781 Z" id="Icons/Linkedin"></path>
            </g>
        </g>
    </g>
</svg>