<?xml version="1.0" encoding="UTF-8"?>
<svg width="30px" height="30px" viewBox="0 0 30 30" version="1.1" xmlns="http://www.w3.org/2000/svg" xmlns:xlink="http://www.w3.org/1999/xlink">
    <title>Icons/Twitter</title>
    <g id="Avyaja" stroke="none" stroke-width="1" fill="none" fill-rule="evenodd">
        <g transform="translate(-1140.000000, -3090.000000)" fill="#004488" id="Footer">
            <g transform="translate(0.000000, 3000.000000)">
                <path d="M1155,90 C1146.717,90 1140,96.7169953 1140,105 C1140,113.283005 1146.717,120 1155,120 C1163.283,120 1170,113.283005 1170,105 C1170,96.7169953 1163.283,90 1155,90 Z M1161.84883,101.695404 C1161.85547,101.843033 1161.85867,101.991348 1161.85867,102.14035 C1161.85867,106.689835 1158.39569,111.936035 1152.06276,111.936264 L1152.06299,111.936264 L1152.06276,111.936264 C1150.11841,111.936264 1148.3091,111.366348 1146.78543,110.389709 C1147.05482,110.421524 1147.32903,110.437317 1147.60666,110.437317 C1149.21982,110.437317 1150.70435,109.887085 1151.88286,108.963547 C1150.37567,108.935623 1149.10492,107.940216 1148.66638,106.572189 C1148.87627,106.612473 1149.0921,106.634445 1149.31343,106.634445 C1149.62769,106.634445 1149.9321,106.592102 1150.22141,106.513138 C1148.64601,106.197739 1147.45926,104.80545 1147.45926,103.138275 C1147.45926,103.122711 1147.45926,103.108749 1147.45972,103.09433 C1147.92366,103.35228 1148.45421,103.507462 1149.01909,103.524857 C1148.09464,102.90802 1147.48695,101.853561 1147.48695,100.659027 C1147.48695,100.028229 1147.65747,99.4372559 1147.95319,98.9284515 C1149.65103,101.011734 1152.18842,102.381821 1155.0499,102.525787 C1154.99084,102.27356 1154.9604,102.010803 1154.9604,101.740723 C1154.9604,99.8400879 1156.50238,98.298111 1158.4037,98.298111 C1159.39407,98.298111 1160.28854,98.7167358 1160.91682,99.3859863 C1161.7012,99.2312622 1162.43774,98.9447021 1163.1031,98.5503387 C1162.84561,99.3539429 1162.29996,100.028229 1161.58905,100.454636 C1162.28554,100.371323 1162.9493,100.186615 1163.56613,99.9124146 C1163.10539,100.602951 1162.52106,101.209488 1161.84883,101.695404 Z" id="Icons/Twitter"></path>
            </g>
        </g>
    </g>
</svg>